<svg xmlns="http://www.w3.org/2000/svg" preserveAspectRatio="xMidYMid" width="44" height="41" viewBox="0 0 44 41"><defs><style>.cls-2{fill:#fff}</style></defs><path d="M40 5.5H3.636C1.628 5.5 0 7.142 0 9.167v27.5c0 2.024 1.628 3.666 3.636 3.666H40c2.008 0 3.636-1.642 3.636-3.666v-27.5C43.636 7.142 42.008 5.5 40 5.5zm1.818 31.167A1.826 1.826 0 0 1 40 38.5H3.636a1.826 1.826 0 0 1-1.818-1.833v-7.334h40v7.334zm0-9.167h-40v-9.167h40V27.5zm0-11h-40V9.167c0-1.013.814-1.834 1.818-1.834H40c1.004 0 1.818.821 1.818 1.834V16.5zM18.182 1.833h7.273c1.004 0 1.818.821 1.818 1.834h1.818C29.091 1.642 27.463 0 25.455 0h-7.273c-2.008 0-3.637 1.642-3.637 3.667h1.819c0-1.013.814-1.834 1.818-1.834z" id="path-1" class="cls-2" fill-rule="evenodd"/></svg>