<svg xmlns="http://www.w3.org/2000/svg" preserveAspectRatio="xMidYMid" width="47" height="33" viewBox="0 0 47 33"><defs><style>.cls-2{fill:#fff}</style></defs><path d="M43.213 20.486c.271-1.011.43-2.066.43-3.161 0-6.834-5.637-12.375-12.589-12.375-1.787 0-3.485.371-5.025 1.031C24.484 2.465 20.93 0 16.786 0 11.223 0 6.714 4.433 6.714 9.9c0 .368.071.717.111 1.075C2.799 12.807 0 16.803 0 21.45 0 27.829 5.261 33 11.75 33h28.536C43.994 33 47 30.045 47 26.4c0-2.609-1.552-4.842-3.787-5.914zM40.286 31.35H11.75c-5.553 0-10.071-4.441-10.071-9.9 0-3.836 2.296-7.36 5.851-8.978l1.094-.497-.131-1.18c-.014-.123-.03-.245-.047-.367-.024-.173-.053-.347-.053-.528 0-4.549 3.765-8.25 8.393-8.25 3.348 0 6.372 1.957 7.702 4.986l.668 1.52 1.544-.662a10.995 10.995 0 0 1 4.354-.894c6.016 0 10.91 4.811 10.91 10.725a10.6 10.6 0 0 1-.374 2.739l-.352 1.31 1.239.594c1.754.843 2.844 2.54 2.844 4.432 0 2.73-2.258 4.95-5.035 4.95z" id="path-1" class="cls-2" fill-rule="evenodd"/></svg>