<svg xmlns="http://www.w3.org/2000/svg" preserveAspectRatio="xMidYMid" width="44" height="44" viewBox="0 0 44 44"><defs><style>.cls-2{fill:#fff}</style></defs><path d="M19.554 26.886a4.524 4.524 0 0 0 6.209-1.677l3.791-15.788L17.89 20.625c-1.255 2.192-.51 4.995 1.664 6.261zm-.195-5.139l6.973-6.699-2.266 9.439a2.716 2.716 0 0 1-3.603.811 2.764 2.764 0 0 1-1.104-3.551zM21.827 0C9.777 0 .009 9.85.009 22s9.768 22 21.818 22 21.818-9.85 21.818-22S33.877 0 21.827 0zm0 42.167c-10.741 0-19.502-8.539-19.977-19.25h3.613v-1.834H1.87A20.15 20.15 0 0 1 7.069 8.416l2.544 2.565 1.286-1.296L8.356 7.12c3.346-3.082 7.724-5.045 12.562-5.263V5.5h1.818V1.857c4.837.218 9.215 2.181 12.562 5.263l-2.543 2.565 1.285 1.296 2.545-2.565a20.154 20.154 0 0 1 5.198 12.667H38.19v1.834h3.614c-.476 10.711-9.236 19.25-19.977 19.25z" id="path-1" class="cls-2" fill-rule="evenodd"/></svg>