<svg xmlns="http://www.w3.org/2000/svg" preserveAspectRatio="xMidYMid" width="44" height="44" viewBox="0 0 44 44"><defs><style>.cls-2{fill:#fff}</style></defs><path d="M10.898 12.833c-2.009 0-3.637 1.642-3.637 3.667s1.628 3.667 3.637 3.667c2.008 0 3.636-1.642 3.636-3.667s-1.628-3.667-3.636-3.667zm0 5.5A1.826 1.826 0 0 1 9.079 16.5c0-1.012.814-1.833 1.819-1.833 1.004 0 1.818.821 1.818 1.833a1.826 1.826 0 0 1-1.818 1.833zm10.909-5.5c-2.008 0-3.637 1.642-3.637 3.667s1.629 3.667 3.637 3.667 3.636-1.642 3.636-3.667-1.628-3.667-3.636-3.667zm0 5.5a1.826 1.826 0 0 1-1.819-1.833c0-1.012.814-1.833 1.819-1.833 1.004 0 1.818.821 1.818 1.833a1.826 1.826 0 0 1-1.818 1.833zm10.909-5.5c-2.009 0-3.637 1.642-3.637 3.667s1.628 3.667 3.637 3.667c2.008 0 3.636-1.642 3.636-3.667s-1.628-3.667-3.636-3.667zm0 5.5a1.826 1.826 0 0 1-1.819-1.833c0-1.012.814-1.833 1.819-1.833 1.004 0 1.818.821 1.818 1.833a1.826 1.826 0 0 1-1.818 1.833zM38.17 0H5.443C2.431 0-.011 2.463-.011 5.5v22c0 3.038 2.442 5.5 5.454 5.5h10.909l-3.636 11 16.363-11h9.091c3.013 0 5.455-2.462 5.455-5.5v-22c0-3.037-2.442-5.5-5.455-5.5zm3.636 27.5c0 2.025-1.628 3.667-3.636 3.667h-10l-12.727 9.166 3.636-9.166H5.443c-2.008 0-3.636-1.642-3.636-3.667v-22c0-2.025 1.628-3.667 3.636-3.667H38.17c2.008 0 3.636 1.642 3.636 3.667v22z" id="path-1" class="cls-2" fill-rule="evenodd"/></svg>