<svg xmlns="http://www.w3.org/2000/svg" xmlns:xlink="http://www.w3.org/1999/xlink" preserveAspectRatio="xMidYMid" width="44" height="41" viewBox="0 0 44 41">
  <defs>
    <style>

      .cls-2 {
        fill: white;
      }
    </style>
  </defs>
  <path d="M40.000,5.500 C40.000,5.500 3.636,5.500 3.636,5.500 C1.628,5.500 0.000,7.142 0.000,9.167 C0.000,9.167 0.000,36.667 0.000,36.667 C0.000,38.691 1.628,40.333 3.636,40.333 C3.636,40.333 40.000,40.333 40.000,40.333 C42.008,40.333 43.636,38.691 43.636,36.667 C43.636,36.667 43.636,9.167 43.636,9.167 C43.636,7.142 42.008,5.500 40.000,5.500 ZM41.818,36.667 C41.818,37.679 41.004,38.500 40.000,38.500 C40.000,38.500 3.636,38.500 3.636,38.500 C2.632,38.500 1.818,37.679 1.818,36.667 C1.818,36.667 1.818,29.333 1.818,29.333 C1.818,29.333 41.818,29.333 41.818,29.333 C41.818,29.333 41.818,36.667 41.818,36.667 ZM41.818,27.500 C41.818,27.500 1.818,27.500 1.818,27.500 C1.818,27.500 1.818,18.333 1.818,18.333 C1.818,18.333 41.818,18.333 41.818,18.333 C41.818,18.333 41.818,27.500 41.818,27.500 ZM41.818,16.500 C41.818,16.500 1.818,16.500 1.818,16.500 C1.818,16.500 1.818,9.167 1.818,9.167 C1.818,8.154 2.632,7.333 3.636,7.333 C3.636,7.333 40.000,7.333 40.000,7.333 C41.004,7.333 41.818,8.154 41.818,9.167 C41.818,9.167 41.818,16.500 41.818,16.500 ZM18.182,1.833 C18.182,1.833 25.455,1.833 25.455,1.833 C26.459,1.833 27.273,2.654 27.273,3.667 C27.273,3.667 29.091,3.667 29.091,3.667 C29.091,1.642 27.463,-0.000 25.455,-0.000 C25.455,-0.000 18.182,-0.000 18.182,-0.000 C16.174,-0.000 14.545,1.642 14.545,3.667 C14.545,3.667 16.364,3.667 16.364,3.667 C16.364,2.654 17.178,1.833 18.182,1.833 Z" id="path-1" class="cls-2" fill-rule="evenodd"/>
</svg>
