<svg xmlns="http://www.w3.org/2000/svg" xmlns:xlink="http://www.w3.org/1999/xlink" preserveAspectRatio="xMidYMid" width="44" height="44" viewBox="0 0 44 44">
  <defs>
    <style>

      .cls-2 {
        fill: white;
      }
    </style>
  </defs>
  <path d="M19.554,26.886 C21.728,28.152 24.508,27.401 25.763,25.209 C25.763,25.209 29.554,9.421 29.554,9.421 C29.554,9.421 17.890,20.625 17.890,20.625 C16.635,22.817 17.380,25.620 19.554,26.886 ZM19.359,21.747 C19.359,21.747 26.332,15.048 26.332,15.048 C26.332,15.048 24.066,24.487 24.066,24.487 C23.266,25.649 21.698,26.018 20.463,25.298 C19.228,24.579 18.761,23.026 19.359,21.747 ZM21.827,-0.000 C9.777,-0.000 0.009,9.850 0.009,22.000 C0.009,34.150 9.777,44.000 21.827,44.000 C33.877,44.000 43.645,34.150 43.645,22.000 C43.645,9.850 33.877,-0.000 21.827,-0.000 ZM21.827,42.167 C11.086,42.167 2.325,33.628 1.850,22.917 C1.850,22.917 5.463,22.917 5.463,22.917 C5.463,22.917 5.463,21.083 5.463,21.083 C5.463,21.083 1.870,21.083 1.870,21.083 C2.089,16.208 4.012,11.789 7.069,8.416 C7.069,8.416 9.613,10.981 9.613,10.981 C9.613,10.981 10.899,9.685 10.899,9.685 C10.899,9.685 8.356,7.120 8.356,7.120 C11.702,4.038 16.080,2.075 20.918,1.857 C20.918,1.857 20.918,5.500 20.918,5.500 C20.918,5.500 22.736,5.500 22.736,5.500 C22.736,5.500 22.736,1.857 22.736,1.857 C27.573,2.075 31.951,4.038 35.298,7.120 C35.298,7.120 32.755,9.685 32.755,9.685 C32.755,9.685 34.040,10.981 34.040,10.981 C34.040,10.981 36.585,8.416 36.585,8.416 C39.641,11.789 41.564,16.208 41.783,21.083 C41.783,21.083 38.190,21.083 38.190,21.083 C38.190,21.083 38.190,22.917 38.190,22.917 C38.190,22.917 41.804,22.917 41.804,22.917 C41.328,33.628 32.568,42.167 21.827,42.167 Z" id="path-1" class="cls-2" fill-rule="evenodd"/>
</svg>
