<svg xmlns="http://www.w3.org/2000/svg" xmlns:xlink="http://www.w3.org/1999/xlink" preserveAspectRatio="xMidYMid" width="44" height="44" viewBox="0 0 44 44">
  <defs>
    <style>

      .cls-2 {
        fill: white;
      }
    </style>
  </defs>
  <path d="M10.898,12.833 C8.889,12.833 7.261,14.475 7.261,16.500 C7.261,18.525 8.889,20.167 10.898,20.167 C12.906,20.167 14.534,18.525 14.534,16.500 C14.534,14.475 12.906,12.833 10.898,12.833 ZM10.898,18.333 C9.893,18.333 9.079,17.512 9.079,16.500 C9.079,15.488 9.893,14.667 10.898,14.667 C11.902,14.667 12.716,15.488 12.716,16.500 C12.716,17.512 11.902,18.333 10.898,18.333 ZM21.807,12.833 C19.799,12.833 18.170,14.475 18.170,16.500 C18.170,18.525 19.799,20.167 21.807,20.167 C23.815,20.167 25.443,18.525 25.443,16.500 C25.443,14.475 23.815,12.833 21.807,12.833 ZM21.807,18.333 C20.802,18.333 19.988,17.512 19.988,16.500 C19.988,15.488 20.802,14.667 21.807,14.667 C22.811,14.667 23.625,15.488 23.625,16.500 C23.625,17.512 22.811,18.333 21.807,18.333 ZM32.716,12.833 C30.707,12.833 29.079,14.475 29.079,16.500 C29.079,18.525 30.707,20.167 32.716,20.167 C34.724,20.167 36.352,18.525 36.352,16.500 C36.352,14.475 34.724,12.833 32.716,12.833 ZM32.716,18.333 C31.711,18.333 30.897,17.512 30.897,16.500 C30.897,15.488 31.711,14.667 32.716,14.667 C33.720,14.667 34.534,15.488 34.534,16.500 C34.534,17.512 33.720,18.333 32.716,18.333 ZM38.170,-0.000 C38.170,-0.000 5.443,-0.000 5.443,-0.000 C2.431,-0.000 -0.011,2.463 -0.011,5.500 C-0.011,5.500 -0.011,27.500 -0.011,27.500 C-0.011,30.538 2.431,33.000 5.443,33.000 C5.443,33.000 16.352,33.000 16.352,33.000 C16.352,33.000 12.716,44.000 12.716,44.000 C12.716,44.000 29.079,33.000 29.079,33.000 C29.079,33.000 38.170,33.000 38.170,33.000 C41.183,33.000 43.625,30.538 43.625,27.500 C43.625,27.500 43.625,5.500 43.625,5.500 C43.625,2.463 41.183,-0.000 38.170,-0.000 ZM41.806,27.500 C41.806,29.525 40.178,31.167 38.170,31.167 C38.170,31.167 28.170,31.167 28.170,31.167 C28.170,31.167 15.443,40.333 15.443,40.333 C15.443,40.333 19.079,31.167 19.079,31.167 C19.079,31.167 5.443,31.167 5.443,31.167 C3.435,31.167 1.807,29.525 1.807,27.500 C1.807,27.500 1.807,5.500 1.807,5.500 C1.807,3.475 3.435,1.833 5.443,1.833 C5.443,1.833 38.170,1.833 38.170,1.833 C40.178,1.833 41.806,3.475 41.806,5.500 C41.806,5.500 41.806,27.500 41.806,27.500 Z" id="path-1" class="cls-2" fill-rule="evenodd"/>
</svg>
